# xmcd
#
# Track frame offsets: 
#        150
#        14239
#        39541
#
# Disc length: 1810 seconds
#
# Revision: 0
# Processed by: cddbd v1.5.1PL0 Copyright (c) Steve Scherf et al.
# Submitted via: ExactAudioCopy v0.95a3
#
DISCID=22071003
DTITLE=The Jenkins - Gataway Car
DYEAR=2004
DGENRE=Country
TTITLE0=Getaway Car
TTITLE1=My Baby's Kiss
TTITLE2=Data
EXTD=
EXTT0=
EXTT1=
EXTT2=
PLAYORDER=
